# xmcd CD database file
#
# Track frame offsets:
#	150
#	16790
#	28550
#	44139
#
# Disc length: 800 seconds
#
# Revision: 2
# Processed by: cddbd v1.4PL0 Copyright (c) Steve Scherf et al.
# Submitted via: CDex 1.50
#
DISCID=29031e04
DTITLE=Muse - Dead Star - In Your World
DYEAR=2002
DGENRE=Psychedelic Rock
TTITLE0=Dead Star
TTITLE1=In Your World
TTITLE2=Futurism
TTITLE3=Can't Take My Eyes Off You
EXTD=YEAR: 2002
EXTT0=
EXTT1=
EXTT2=
EXTT3=
PLAYORDER=
